<mxfile host="65bd71144e">
    <diagram name="Page-1" id="DVFKlHlpcntOysqI4B4s">
        <mxGraphModel dx="728" dy="487" grid="1" gridSize="10" guides="1" tooltips="1" connect="1" arrows="1" fold="1" page="1" pageScale="1" pageWidth="1100" pageHeight="850" math="0" shadow="0">
            <root>
                <mxCell id="0"/>
                <mxCell id="1" parent="0"/>
                <mxCell id="S0ncBQXwlrqg5MwkTQ2X-46" value="" style="endArrow=classic;html=1;rounded=0;strokeWidth=5;" parent="1" edge="1">
                    <mxGeometry width="50" height="50" relative="1" as="geometry">
                        <mxPoint x="300" y="510" as="sourcePoint"/>
                        <mxPoint x="300" y="650.2222357855903" as="targetPoint"/>
                    </mxGeometry>
                </mxCell>
                <mxCell id="S0ncBQXwlrqg5MwkTQ2X-5" value="" style="ellipse;whiteSpace=wrap;html=1;fillColor=none;strokeWidth=3;strokeColor=#000099;" parent="1" vertex="1">
                    <mxGeometry x="100" y="90" width="340" height="210" as="geometry"/>
                </mxCell>
                <mxCell id="S0ncBQXwlrqg5MwkTQ2X-3" value="" style="ellipse;whiteSpace=wrap;html=1;fillColor=none;strokeWidth=3;strokeColor=#009900;" parent="1" vertex="1">
                    <mxGeometry x="100" y="170" width="340" height="50" as="geometry"/>
                </mxCell>
                <mxCell id="S0ncBQXwlrqg5MwkTQ2X-4" value="" style="ellipse;whiteSpace=wrap;html=1;fillColor=none;strokeWidth=3;strokeColor=#FF3333;" parent="1" vertex="1">
                    <mxGeometry x="250" y="90" width="40" height="210" as="geometry"/>
                </mxCell>
                <mxCell id="S0ncBQXwlrqg5MwkTQ2X-1" value="" style="verticalLabelPosition=bottom;html=1;verticalAlign=top;strokeWidth=2;shape=mxgraph.lean_mapping.airplane_7;rotation=21;" parent="1" vertex="1">
                    <mxGeometry x="70" y="120" width="333.33" height="150" as="geometry"/>
                </mxCell>
                <mxCell id="S0ncBQXwlrqg5MwkTQ2X-6" value="" style="endArrow=classic;html=1;rounded=0;strokeColor=#000099;strokeWidth=2;" parent="1" edge="1">
                    <mxGeometry width="50" height="50" relative="1" as="geometry">
                        <mxPoint x="339.92" y="190" as="sourcePoint"/>
                        <mxPoint x="310" y="150" as="targetPoint"/>
                    </mxGeometry>
                </mxCell>
                <mxCell id="S0ncBQXwlrqg5MwkTQ2X-7" value="" style="endArrow=classic;html=1;rounded=0;exitX=0.616;exitY=0.365;exitDx=0;exitDy=0;exitPerimeter=0;strokeColor=#FF3333;strokeWidth=2;" parent="1" edge="1">
                    <mxGeometry width="50" height="50" relative="1" as="geometry">
                        <mxPoint x="339.94003315175263" y="189.95175184357618" as="sourcePoint"/>
                        <mxPoint x="390" y="190" as="targetPoint"/>
                    </mxGeometry>
                </mxCell>
                <mxCell id="S0ncBQXwlrqg5MwkTQ2X-8" value="" style="endArrow=classic;html=1;rounded=0;entryX=0.75;entryY=0.19;entryDx=0;entryDy=0;entryPerimeter=0;fillColor=#cdeb8b;strokeColor=#009900;strokeWidth=2;" parent="1" edge="1">
                    <mxGeometry width="50" height="50" relative="1" as="geometry">
                        <mxPoint x="339.92" y="190" as="sourcePoint"/>
                        <mxPoint x="339.92" y="129.90000000000003" as="targetPoint"/>
                    </mxGeometry>
                </mxCell>
                <mxCell id="S0ncBQXwlrqg5MwkTQ2X-9" value="&lt;font style=&quot;font-size: 16px;&quot; face=&quot;CMU Typewriter Text&quot;&gt;Y&lt;sub&gt;B&lt;/sub&gt;&lt;/font&gt;" style="text;html=1;strokeColor=none;fillColor=none;align=center;verticalAlign=middle;whiteSpace=wrap;rounded=0;" parent="1" vertex="1">
                    <mxGeometry x="300" y="130" width="20" height="20" as="geometry"/>
                </mxCell>
                <mxCell id="S0ncBQXwlrqg5MwkTQ2X-11" value="&lt;font style=&quot;&quot; face=&quot;CMU Typewriter Text&quot;&gt;&lt;span style=&quot;font-size: 16px;&quot;&gt;X&lt;sub&gt;B&lt;/sub&gt;&lt;/span&gt;&lt;/font&gt;" style="text;html=1;strokeColor=none;fillColor=none;align=center;verticalAlign=middle;whiteSpace=wrap;rounded=0;" parent="1" vertex="1">
                    <mxGeometry x="390" y="180" width="20" height="20" as="geometry"/>
                </mxCell>
                <mxCell id="S0ncBQXwlrqg5MwkTQ2X-12" value="&lt;font style=&quot;font-size: 16px;&quot; face=&quot;CMU Typewriter Text&quot;&gt;Z&lt;sub&gt;B&lt;/sub&gt;&lt;/font&gt;" style="text;html=1;strokeColor=none;fillColor=none;align=center;verticalAlign=middle;whiteSpace=wrap;rounded=0;" parent="1" vertex="1">
                    <mxGeometry x="330" y="110" width="20" height="20" as="geometry"/>
                </mxCell>
                <mxCell id="S0ncBQXwlrqg5MwkTQ2X-13" value="&lt;font size=&quot;1&quot; face=&quot;CMU Typewriter Text&quot;&gt;&lt;b style=&quot;font-size: 20px;&quot;&gt;ϕ&lt;/b&gt;&lt;/font&gt;" style="text;html=1;strokeColor=none;fillColor=none;align=center;verticalAlign=middle;whiteSpace=wrap;rounded=0;" parent="1" vertex="1">
                    <mxGeometry x="290" y="260" width="10" height="20" as="geometry"/>
                </mxCell>
                <mxCell id="S0ncBQXwlrqg5MwkTQ2X-14" value="&lt;font style=&quot;font-size: 20px;&quot; face=&quot;CMU Typewriter Text&quot;&gt;&lt;b&gt;ψ&lt;/b&gt;&lt;/font&gt;" style="text;html=1;strokeColor=none;fillColor=none;align=center;verticalAlign=middle;whiteSpace=wrap;rounded=0;" parent="1" vertex="1">
                    <mxGeometry x="340" y="220" width="10" height="20" as="geometry"/>
                </mxCell>
                <mxCell id="S0ncBQXwlrqg5MwkTQ2X-15" value="&lt;font size=&quot;1&quot; face=&quot;CMU Typewriter Text&quot;&gt;&lt;b style=&quot;font-size: 20px;&quot;&gt;θ&lt;/b&gt;&lt;/font&gt;" style="text;html=1;strokeColor=none;fillColor=none;align=center;verticalAlign=middle;whiteSpace=wrap;rounded=0;" parent="1" vertex="1">
                    <mxGeometry x="370" y="260" width="10" height="20" as="geometry"/>
                </mxCell>
                <mxCell id="S0ncBQXwlrqg5MwkTQ2X-17" value="" style="endArrow=classic;html=1;rounded=0;entryX=0.745;entryY=0.966;entryDx=0;entryDy=0;entryPerimeter=0;fillColor=#cdeb8b;strokeColor=#009900;strokeWidth=2;exitX=0.649;exitY=1.004;exitDx=0;exitDy=0;exitPerimeter=0;" parent="1" edge="1">
                    <mxGeometry width="50" height="50" relative="1" as="geometry">
                        <mxPoint x="307.35999999999996" y="219.99999999999994" as="sourcePoint"/>
                        <mxPoint x="339.99999999999994" y="218.10000000000002" as="targetPoint"/>
                    </mxGeometry>
                </mxCell>
                <mxCell id="S0ncBQXwlrqg5MwkTQ2X-18" value="" style="endArrow=classic;html=1;rounded=0;entryX=0.939;entryY=0.733;entryDx=0;entryDy=0;entryPerimeter=0;fillColor=#cdeb8b;strokeColor=#FF3333;strokeWidth=2;exitX=0.887;exitY=0.822;exitDx=0;exitDy=0;exitPerimeter=0;" parent="1" source="S0ncBQXwlrqg5MwkTQ2X-4" target="S0ncBQXwlrqg5MwkTQ2X-4" edge="1">
                    <mxGeometry width="50" height="50" relative="1" as="geometry">
                        <mxPoint x="287.4" y="270" as="sourcePoint"/>
                        <mxPoint x="290" y="247.32" as="targetPoint"/>
                    </mxGeometry>
                </mxCell>
                <mxCell id="S0ncBQXwlrqg5MwkTQ2X-19" value="" style="endArrow=classic;html=1;rounded=0;strokeColor=#000099;strokeWidth=2;exitX=0.838;exitY=0.869;exitDx=0;exitDy=0;exitPerimeter=0;entryX=0.887;entryY=0.817;entryDx=0;entryDy=0;entryPerimeter=0;" parent="1" source="S0ncBQXwlrqg5MwkTQ2X-5" target="S0ncBQXwlrqg5MwkTQ2X-5" edge="1">
                    <mxGeometry width="50" height="50" relative="1" as="geometry">
                        <mxPoint x="349.92" y="200" as="sourcePoint"/>
                        <mxPoint x="320" y="160" as="targetPoint"/>
                    </mxGeometry>
                </mxCell>
                <mxCell id="S0ncBQXwlrqg5MwkTQ2X-20" value="" style="verticalLabelPosition=bottom;verticalAlign=top;html=1;shape=mxgraph.basic.arc;startAngle=0.2484085036175459;endAngle=0.75;strokeColor=#009900;strokeWidth=3;" parent="1" vertex="1">
                    <mxGeometry x="100" y="170" width="340" height="50" as="geometry"/>
                </mxCell>
                <mxCell id="S0ncBQXwlrqg5MwkTQ2X-21" value="" style="verticalLabelPosition=bottom;verticalAlign=top;html=1;shape=mxgraph.basic.arc;startAngle=0.2484085036175459;endAngle=0.75;strokeColor=#FF3333;strokeWidth=3;rotation=-90;" parent="1" vertex="1">
                    <mxGeometry x="165" y="175" width="210" height="40" as="geometry"/>
                </mxCell>
                <mxCell id="S0ncBQXwlrqg5MwkTQ2X-22" value="" style="ellipse;whiteSpace=wrap;html=1;fillColor=none;strokeWidth=3;strokeColor=#000099;" parent="1" vertex="1">
                    <mxGeometry x="115" y="410" width="340" height="210" as="geometry"/>
                </mxCell>
                <mxCell id="S0ncBQXwlrqg5MwkTQ2X-23" value="" style="ellipse;whiteSpace=wrap;html=1;fillColor=none;strokeWidth=3;strokeColor=#009900;" parent="1" vertex="1">
                    <mxGeometry x="115" y="490" width="340" height="50" as="geometry"/>
                </mxCell>
                <mxCell id="S0ncBQXwlrqg5MwkTQ2X-24" value="" style="ellipse;whiteSpace=wrap;html=1;fillColor=none;strokeWidth=3;strokeColor=#FF3333;" parent="1" vertex="1">
                    <mxGeometry x="265" y="410" width="40" height="210" as="geometry"/>
                </mxCell>
                <mxCell id="S0ncBQXwlrqg5MwkTQ2X-25" value="" style="verticalLabelPosition=bottom;html=1;verticalAlign=top;strokeWidth=2;shape=mxgraph.lean_mapping.airplane_7;rotation=5;" parent="1" vertex="1">
                    <mxGeometry x="85" y="440" width="333.33" height="150" as="geometry"/>
                </mxCell>
                <mxCell id="S0ncBQXwlrqg5MwkTQ2X-34" value="&lt;font size=&quot;1&quot; face=&quot;CMU Typewriter Text&quot;&gt;&lt;b style=&quot;font-size: 20px;&quot;&gt;θ&lt;/b&gt;&lt;/font&gt;" style="text;html=1;strokeColor=none;fillColor=none;align=center;verticalAlign=middle;whiteSpace=wrap;rounded=0;" parent="1" vertex="1">
                    <mxGeometry x="428.33" y="480" width="10" height="20" as="geometry"/>
                </mxCell>
                <mxCell id="S0ncBQXwlrqg5MwkTQ2X-35" value="" style="endArrow=classic;html=1;rounded=0;entryX=0.745;entryY=0.966;entryDx=0;entryDy=0;entryPerimeter=0;fillColor=#cdeb8b;strokeColor=#009900;strokeWidth=2;exitX=0.649;exitY=1.004;exitDx=0;exitDy=0;exitPerimeter=0;" parent="1" edge="1">
                    <mxGeometry width="50" height="50" relative="1" as="geometry">
                        <mxPoint x="322.35999999999996" y="540" as="sourcePoint"/>
                        <mxPoint x="354.99999999999994" y="538.1" as="targetPoint"/>
                    </mxGeometry>
                </mxCell>
                <mxCell id="S0ncBQXwlrqg5MwkTQ2X-36" value="" style="endArrow=classic;html=1;rounded=0;entryX=0.939;entryY=0.733;entryDx=0;entryDy=0;entryPerimeter=0;fillColor=#cdeb8b;strokeColor=#FF3333;strokeWidth=2;exitX=0.887;exitY=0.822;exitDx=0;exitDy=0;exitPerimeter=0;" parent="1" source="S0ncBQXwlrqg5MwkTQ2X-24" target="S0ncBQXwlrqg5MwkTQ2X-24" edge="1">
                    <mxGeometry width="50" height="50" relative="1" as="geometry">
                        <mxPoint x="302.4" y="590" as="sourcePoint"/>
                        <mxPoint x="305" y="567.3199999999999" as="targetPoint"/>
                    </mxGeometry>
                </mxCell>
                <mxCell id="S0ncBQXwlrqg5MwkTQ2X-37" value="" style="endArrow=classic;html=1;rounded=0;strokeColor=#000099;strokeWidth=2;exitX=0.838;exitY=0.869;exitDx=0;exitDy=0;exitPerimeter=0;entryX=0.887;entryY=0.817;entryDx=0;entryDy=0;entryPerimeter=0;" parent="1" source="S0ncBQXwlrqg5MwkTQ2X-22" target="S0ncBQXwlrqg5MwkTQ2X-22" edge="1">
                    <mxGeometry width="50" height="50" relative="1" as="geometry">
                        <mxPoint x="364.92" y="520" as="sourcePoint"/>
                        <mxPoint x="335" y="480" as="targetPoint"/>
                    </mxGeometry>
                </mxCell>
                <mxCell id="S0ncBQXwlrqg5MwkTQ2X-38" value="" style="verticalLabelPosition=bottom;verticalAlign=top;html=1;shape=mxgraph.basic.arc;startAngle=0.2484085036175459;endAngle=0.75;strokeColor=#009900;strokeWidth=3;" parent="1" vertex="1">
                    <mxGeometry x="115" y="490" width="340" height="50" as="geometry"/>
                </mxCell>
                <mxCell id="S0ncBQXwlrqg5MwkTQ2X-39" value="" style="verticalLabelPosition=bottom;verticalAlign=top;html=1;shape=mxgraph.basic.arc;startAngle=0.2484085036175459;endAngle=0.75;strokeColor=#FF3333;strokeWidth=3;rotation=-90;" parent="1" vertex="1">
                    <mxGeometry x="180" y="495" width="210" height="40" as="geometry"/>
                </mxCell>
                <mxCell id="S0ncBQXwlrqg5MwkTQ2X-40" value="" style="endArrow=none;dashed=1;html=1;dashPattern=1 3;strokeWidth=2;rounded=0;exitX=0.524;exitY=0.625;exitDx=0;exitDy=0;exitPerimeter=0;entryX=0.926;entryY=0.4;entryDx=0;entryDy=0;entryPerimeter=0;strokeColor=#000099;" parent="1" source="S0ncBQXwlrqg5MwkTQ2X-39" target="S0ncBQXwlrqg5MwkTQ2X-23" edge="1">
                    <mxGeometry width="50" height="50" relative="1" as="geometry">
                        <mxPoint x="360" y="540" as="sourcePoint"/>
                        <mxPoint x="410" y="490" as="targetPoint"/>
                    </mxGeometry>
                </mxCell>
                <mxCell id="S0ncBQXwlrqg5MwkTQ2X-41" value="" style="verticalLabelPosition=bottom;verticalAlign=top;html=1;shape=mxgraph.basic.arc;startAngle=0.25636280567399594;endAngle=0.4602471076038711;rotation=-75;strokeWidth=3;fillColor=none;strokeColor=#000099;" parent="1" vertex="1">
                    <mxGeometry x="372.14" y="487.41999999999996" width="56.19" height="47.58" as="geometry"/>
                </mxCell>
                <mxCell id="S0ncBQXwlrqg5MwkTQ2X-42" value="" style="group;rotation=-17;" parent="1" vertex="1" connectable="0">
                    <mxGeometry x="300" y="400" width="95" height="80" as="geometry"/>
                </mxCell>
                <mxCell id="S0ncBQXwlrqg5MwkTQ2X-26" value="" style="endArrow=classic;html=1;rounded=0;strokeColor=#000099;strokeWidth=2;" parent="S0ncBQXwlrqg5MwkTQ2X-42" edge="1">
                    <mxGeometry width="50" height="50" relative="1" as="geometry">
                        <mxPoint x="52" y="80" as="sourcePoint"/>
                        <mxPoint x="12" y="51" as="targetPoint"/>
                    </mxGeometry>
                </mxCell>
                <mxCell id="S0ncBQXwlrqg5MwkTQ2X-27" value="" style="endArrow=classic;html=1;rounded=0;exitX=0.616;exitY=0.365;exitDx=0;exitDy=0;exitPerimeter=0;strokeColor=#FF3333;strokeWidth=2;" parent="S0ncBQXwlrqg5MwkTQ2X-42" edge="1">
                    <mxGeometry width="50" height="50" relative="1" as="geometry">
                        <mxPoint x="52" y="80" as="sourcePoint"/>
                        <mxPoint x="100" y="66" as="targetPoint"/>
                    </mxGeometry>
                </mxCell>
                <mxCell id="S0ncBQXwlrqg5MwkTQ2X-28" value="" style="endArrow=classic;html=1;rounded=0;entryX=0.75;entryY=0.19;entryDx=0;entryDy=0;entryPerimeter=0;fillColor=#cdeb8b;strokeColor=#009900;strokeWidth=2;" parent="S0ncBQXwlrqg5MwkTQ2X-42" edge="1">
                    <mxGeometry width="50" height="50" relative="1" as="geometry">
                        <mxPoint x="52" y="80" as="sourcePoint"/>
                        <mxPoint x="34" y="23" as="targetPoint"/>
                    </mxGeometry>
                </mxCell>
                <mxCell id="S0ncBQXwlrqg5MwkTQ2X-29" value="&lt;font style=&quot;font-size: 16px;&quot; face=&quot;CMU Typewriter Text&quot;&gt;Y&lt;sub&gt;B&lt;/sub&gt;&lt;/font&gt;" style="text;html=1;strokeColor=none;fillColor=none;align=center;verticalAlign=middle;whiteSpace=wrap;rounded=0;rotation=-17;" parent="S0ncBQXwlrqg5MwkTQ2X-42" vertex="1">
                    <mxGeometry x="-1" y="31" width="20" height="20" as="geometry"/>
                </mxCell>
                <mxCell id="S0ncBQXwlrqg5MwkTQ2X-31" value="&lt;font style=&quot;font-size: 16px;&quot; face=&quot;CMU Typewriter Text&quot;&gt;Z&lt;sub&gt;B&lt;/sub&gt;&lt;/font&gt;" style="text;html=1;strokeColor=none;fillColor=none;align=center;verticalAlign=middle;whiteSpace=wrap;rounded=0;rotation=-17;" parent="S0ncBQXwlrqg5MwkTQ2X-42" vertex="1">
                    <mxGeometry x="42" y="30" width="20" height="20" as="geometry"/>
                </mxCell>
                <mxCell id="S0ncBQXwlrqg5MwkTQ2X-43" value="" style="endArrow=none;dashed=1;html=1;dashPattern=1 3;strokeWidth=2;rounded=0;entryX=0.294;entryY=0.061;entryDx=0;entryDy=0;entryPerimeter=0;strokeColor=#FF3333;exitX=0.571;exitY=0.5;exitDx=0;exitDy=0;exitPerimeter=0;" parent="1" source="S0ncBQXwlrqg5MwkTQ2X-39" target="S0ncBQXwlrqg5MwkTQ2X-24" edge="1">
                    <mxGeometry width="50" height="50" relative="1" as="geometry">
                        <mxPoint x="300" y="510" as="sourcePoint"/>
                        <mxPoint x="440" y="520" as="targetPoint"/>
                    </mxGeometry>
                </mxCell>
                <mxCell id="S0ncBQXwlrqg5MwkTQ2X-30" value="&lt;font style=&quot;&quot; face=&quot;CMU Typewriter Text&quot;&gt;&lt;span style=&quot;font-size: 16px;&quot;&gt;X&lt;sub&gt;B&lt;/sub&gt;&lt;/span&gt;&lt;/font&gt;" style="text;html=1;strokeColor=none;fillColor=none;align=center;verticalAlign=middle;whiteSpace=wrap;rounded=0;rotation=-17;" parent="1" vertex="1">
                    <mxGeometry x="400" y="460" width="20" height="20" as="geometry"/>
                </mxCell>
                <mxCell id="S0ncBQXwlrqg5MwkTQ2X-44" value="" style="verticalLabelPosition=bottom;verticalAlign=top;html=1;shape=mxgraph.basic.arc;startAngle=0.21553494853499797;endAngle=0.4394405292045783;rotation=-150;strokeWidth=3;fillColor=none;strokeColor=#FF3333;" parent="1" vertex="1">
                    <mxGeometry x="281.91" y="457.75" width="38.09" height="32.25" as="geometry"/>
                </mxCell>
                <mxCell id="S0ncBQXwlrqg5MwkTQ2X-45" value="&lt;font size=&quot;1&quot; face=&quot;CMU Typewriter Text&quot;&gt;&lt;b style=&quot;font-size: 20px;&quot;&gt;ϕ&lt;/b&gt;&lt;/font&gt;" style="text;html=1;strokeColor=none;fillColor=none;align=center;verticalAlign=middle;whiteSpace=wrap;rounded=0;" parent="1" vertex="1">
                    <mxGeometry x="284" y="428.75" width="10" height="20" as="geometry"/>
                </mxCell>
                <mxCell id="S0ncBQXwlrqg5MwkTQ2X-47" value="&lt;font style=&quot;&quot; face=&quot;CMU Typewriter Text&quot;&gt;&lt;b style=&quot;&quot;&gt;&lt;span style=&quot;font-size: 16px;&quot;&gt;a&lt;/span&gt;&lt;span style=&quot;font-size: 13.3333px;&quot;&gt;&lt;sub&gt;G&lt;/sub&gt;&lt;/span&gt;&lt;/b&gt;&lt;/font&gt;" style="text;html=1;strokeColor=none;fillColor=none;align=center;verticalAlign=middle;whiteSpace=wrap;rounded=0;" parent="1" vertex="1">
                    <mxGeometry x="310" y="640" width="20" height="20" as="geometry"/>
                </mxCell>
                <mxCell id="3" value="" style="endArrow=none;dashed=1;html=1;dashPattern=1 3;strokeWidth=2;rounded=0;entryX=0.799;entryY=0.119;entryDx=0;entryDy=0;entryPerimeter=0;strokeColor=#009900;exitX=0.524;exitY=0.625;exitDx=0;exitDy=0;exitPerimeter=0;" edge="1" parent="1" source="S0ncBQXwlrqg5MwkTQ2X-39" target="S0ncBQXwlrqg5MwkTQ2X-23">
                    <mxGeometry width="50" height="50" relative="1" as="geometry">
                        <mxPoint x="300" y="519.9600000000002" as="sourcePoint"/>
                        <mxPoint x="439.84000000000003" y="520.0000000000001" as="targetPoint"/>
                    </mxGeometry>
                </mxCell>
                <mxCell id="4" value="" style="verticalLabelPosition=bottom;verticalAlign=top;html=1;shape=mxgraph.basic.arc;startAngle=0.25636280567399594;endAngle=0.48750791218147843;rotation=-75;strokeWidth=3;fillColor=none;strokeColor=#009900;" vertex="1" parent="1">
                    <mxGeometry x="355" y="500" width="20" height="16.94" as="geometry"/>
                </mxCell>
                <mxCell id="6" value="&lt;font style=&quot;font-size: 20px;&quot; face=&quot;CMU Typewriter Text&quot;&gt;&lt;b&gt;ψ&lt;/b&gt;&lt;/font&gt;" style="text;html=1;strokeColor=none;fillColor=none;align=center;verticalAlign=middle;whiteSpace=wrap;rounded=0;" vertex="1" parent="1">
                    <mxGeometry x="355" y="515" width="10" height="20" as="geometry"/>
                </mxCell>
                <mxCell id="7" value="" style="endArrow=none;html=1;rounded=0;entryX=0.845;entryY=0.823;entryDx=0;entryDy=0;entryPerimeter=0;fillColor=#cdeb8b;strokeColor=#000000;strokeWidth=1;exitX=0.5;exitY=0;exitDx=0;exitDy=0;endFill=0;edgeStyle=orthogonalEdgeStyle;curved=1;" edge="1" parent="1" source="6" target="4">
                    <mxGeometry width="50" height="50" relative="1" as="geometry">
                        <mxPoint x="362" y="490" as="sourcePoint"/>
                        <mxPoint x="344" y="433" as="targetPoint"/>
                        <Array as="points">
                            <mxPoint x="360" y="503"/>
                        </Array>
                    </mxGeometry>
                </mxCell>
                <mxCell id="8" value="" style="endArrow=classic;html=1;rounded=0;strokeColor=#000000;strokeWidth=2;" edge="1" parent="1">
                    <mxGeometry width="50" height="50" relative="1" as="geometry">
                        <mxPoint x="450.00000000000006" y="576.94" as="sourcePoint"/>
                        <mxPoint x="490.08" y="620" as="targetPoint"/>
                    </mxGeometry>
                </mxCell>
                <mxCell id="9" value="" style="endArrow=classic;html=1;rounded=0;exitX=0.616;exitY=0.365;exitDx=0;exitDy=0;exitPerimeter=0;strokeColor=#000000;strokeWidth=2;" edge="1" parent="1">
                    <mxGeometry width="50" height="50" relative="1" as="geometry">
                        <mxPoint x="450.02003315175267" y="576.8917518435762" as="sourcePoint"/>
                        <mxPoint x="500.08" y="576.94" as="targetPoint"/>
                    </mxGeometry>
                </mxCell>
                <mxCell id="10" value="" style="endArrow=classic;html=1;rounded=0;fillColor=#cdeb8b;strokeColor=#000000;strokeWidth=2;" edge="1" parent="1">
                    <mxGeometry width="50" height="50" relative="1" as="geometry">
                        <mxPoint x="450.00000000000006" y="576.94" as="sourcePoint"/>
                        <mxPoint x="450.08" y="640" as="targetPoint"/>
                    </mxGeometry>
                </mxCell>
                <mxCell id="11" value="&lt;font face=&quot;CMU Typewriter Text&quot;&gt;&lt;span style=&quot;font-size: 16px;&quot;&gt;E&lt;/span&gt;&lt;/font&gt;" style="text;html=1;strokeColor=none;fillColor=none;align=center;verticalAlign=middle;whiteSpace=wrap;rounded=0;" vertex="1" parent="1">
                    <mxGeometry x="490.08" y="610" width="20" height="20" as="geometry"/>
                </mxCell>
                <mxCell id="12" value="&lt;font face=&quot;CMU Typewriter Text&quot;&gt;&lt;span style=&quot;font-size: 16px;&quot;&gt;D&lt;/span&gt;&lt;/font&gt;" style="text;html=1;strokeColor=none;fillColor=none;align=center;verticalAlign=middle;whiteSpace=wrap;rounded=0;" vertex="1" parent="1">
                    <mxGeometry x="450.08" y="630" width="20" height="20" as="geometry"/>
                </mxCell>
                <mxCell id="14" value="&lt;font face=&quot;CMU Typewriter Text&quot;&gt;&lt;span style=&quot;font-size: 16px;&quot;&gt;N&lt;/span&gt;&lt;/font&gt;" style="text;html=1;strokeColor=none;fillColor=none;align=center;verticalAlign=middle;whiteSpace=wrap;rounded=0;" vertex="1" parent="1">
                    <mxGeometry x="500.08" y="570" width="20" height="20" as="geometry"/>
                </mxCell>
            </root>
        </mxGraphModel>
    </diagram>
</mxfile>